<svg data-v-423bf9ae="" xmlns="http://www.w3.org/2000/svg" viewBox="0 0 422.74044798958727 163" class="iconAbove"><!----><!----><!----><g data-v-423bf9ae="" id="186e9e76-7a98-499c-b07a-7c502bb53925" fill="white" transform="matrix(5.830902730890859,0,0,5.830902730890859,-2.6239032592965543,86.84839954664795)"><path d="M3.68 12.08L4.10 12.08Q4.83 12.08 5.31 11.96Q5.78 11.83 6.05 11.59Q6.31 11.34 6.42 11.00Q6.52 10.65 6.52 10.22L6.52 10.22Q6.52 9.25 6.01 8.83Q5.49 8.40 4.21 8.40L4.21 8.40L3.65 8.40Q3.65 9.38 3.65 10.29Q3.65 11.20 3.68 12.08L3.68 12.08ZM4.37 4.45L3.68 4.45Q3.65 5.25 3.65 6.05Q3.65 6.85 3.65 7.66L3.65 7.66L4.17 7.66Q5.18 7.66 5.64 7.25Q6.10 6.83 6.10 6.03L6.10 6.03Q6.10 5.24 5.69 4.84Q5.28 4.45 4.37 4.45L4.37 4.45ZM0.45 3.68L4.84 3.68Q6.50 3.68 7.27 4.31Q8.04 4.94 8.04 5.98L8.04 5.98Q8.04 6.31 7.95 6.63Q7.87 6.94 7.67 7.21Q7.46 7.48 7.14 7.67Q6.82 7.87 6.36 7.99L6.36 7.99Q6.97 8.11 7.39 8.32Q7.81 8.54 8.07 8.83Q8.33 9.13 8.44 9.49Q8.55 9.86 8.55 10.25L8.55 10.25Q8.55 10.72 8.38 11.19Q8.20 11.65 7.72 12.02Q7.24 12.39 6.38 12.62Q5.53 12.85 4.17 12.85L4.17 12.85L0.45 12.85L0.45 12.15L1.58 12.03Q1.61 11.16 1.61 10.28Q1.61 9.41 1.61 8.51L1.61 8.51L1.61 8.02Q1.61 7.14 1.61 6.27Q1.61 5.39 1.58 4.51L1.58 4.51L0.45 4.38L0.45 3.68ZM13.34 11.61L13.34 9.24Q13.08 9.31 12.85 9.39Q12.61 9.46 12.45 9.53L12.45 9.53Q11.83 9.77 11.59 10.14Q11.35 10.50 11.35 10.95L11.35 10.95Q11.35 11.23 11.43 11.40Q11.51 11.56 11.62 11.68L11.62 11.68Q11.91 11.97 12.40 11.97L12.40 11.97Q12.63 11.97 12.84 11.89Q13.05 11.82 13.34 11.61L13.34 11.61ZM16.09 11.70L16.45 11.97Q16.17 12.54 15.81 12.77Q15.46 12.99 14.92 12.99L14.92 12.99Q14.35 12.99 13.97 12.77Q13.59 12.54 13.44 12.18L13.44 12.18Q12.96 12.61 12.52 12.84Q12.08 13.06 11.42 13.06L11.42 13.06Q10.58 13.06 10.06 12.63Q9.53 12.21 9.53 11.38L9.53 11.38Q9.53 11.06 9.64 10.75Q9.74 10.43 10.03 10.13Q10.32 9.83 10.82 9.55Q11.33 9.27 12.12 9.00L12.12 9.00Q12.36 8.92 12.68 8.83Q13.01 8.74 13.34 8.64L13.34 8.64L13.34 8.22Q13.34 7.34 13.08 6.96Q12.81 6.58 12.14 6.58L12.14 6.58Q12.03 6.58 11.92 6.59Q11.82 6.59 11.70 6.61L11.70 6.61L11.59 7.42Q11.52 7.97 11.26 8.23Q10.99 8.50 10.63 8.50L10.63 8.50Q10.30 8.50 10.07 8.30Q9.84 8.11 9.77 7.78L9.77 7.78Q9.87 6.96 10.65 6.42Q11.44 5.88 12.78 5.88L12.78 5.88Q13.44 5.88 13.91 6.03Q14.38 6.17 14.67 6.50Q14.97 6.83 15.11 7.37Q15.25 7.91 15.25 8.69L15.25 8.69L15.25 11.58Q15.25 11.80 15.33 11.94Q15.41 12.08 15.60 12.08L15.60 12.08Q15.74 12.08 15.82 12.00Q15.90 11.91 16.02 11.79L16.02 11.79L16.09 11.70ZM19.61 12.07L20.40 12.24L20.40 12.85L16.84 12.85L16.84 12.24L17.68 12.07Q17.70 11.52 17.70 10.98Q17.71 10.44 17.71 9.91L17.71 9.91L17.71 4.10L16.66 3.96L16.66 3.40L19.45 2.77L19.64 2.88L19.59 4.87L19.59 9.91Q19.59 10.44 19.59 10.99Q19.60 11.54 19.61 12.07L19.61 12.07ZM25.00 11.61L25.00 9.24Q24.74 9.31 24.51 9.39Q24.28 9.46 24.11 9.53L24.11 9.53Q23.49 9.77 23.25 10.14Q23.02 10.50 23.02 10.95L23.02 10.95Q23.02 11.23 23.09 11.40Q23.17 11.56 23.28 11.68L23.28 11.68Q23.58 11.97 24.07 11.97L24.07 11.97Q24.29 11.97 24.50 11.89Q24.71 11.82 25.00 11.61L25.00 11.61ZM27.75 11.70L28.11 11.97Q27.83 12.54 27.47 12.77Q27.12 12.99 26.59 12.99L26.59 12.99Q26.01 12.99 25.63 12.77Q25.26 12.54 25.10 12.18L25.10 12.18Q24.63 12.61 24.18 12.84Q23.74 13.06 23.09 13.06L23.09 13.06Q22.25 13.06 21.72 12.63Q21.20 12.21 21.20 11.38L21.20 11.38Q21.20 11.06 21.30 10.75Q21.41 10.43 21.69 10.13Q21.98 9.83 22.48 9.55Q22.99 9.27 23.79 9.00L23.79 9.00Q24.02 8.92 24.35 8.83Q24.67 8.74 25.00 8.64L25.00 8.64L25.00 8.22Q25.00 7.34 24.74 6.96Q24.47 6.58 23.80 6.58L23.80 6.58Q23.69 6.58 23.58 6.59Q23.48 6.59 23.37 6.61L23.37 6.61L23.25 7.42Q23.18 7.97 22.92 8.23Q22.65 8.50 22.29 8.50L22.29 8.50Q21.97 8.50 21.73 8.30Q21.50 8.11 21.43 7.78L21.43 7.78Q21.53 6.96 22.32 6.42Q23.10 5.88 24.44 5.88L24.44 5.88Q25.10 5.88 25.57 6.03Q26.04 6.17 26.33 6.50Q26.63 6.83 26.77 7.37Q26.91 7.91 26.91 8.69L26.91 8.69L26.91 11.58Q26.91 11.80 26.99 11.94Q27.08 12.08 27.26 12.08L27.26 12.08Q27.40 12.08 27.48 12.00Q27.57 11.91 27.68 11.79L27.68 11.79L27.75 11.70ZM35.67 12.07L36.47 12.24L36.47 12.85L32.89 12.85L32.89 12.24L33.74 12.07Q33.75 11.55 33.75 10.96Q33.75 10.37 33.75 9.91L33.75 9.91L33.75 8.57Q33.75 7.77 33.59 7.40Q33.42 7.03 32.93 7.03L32.93 7.03Q32.52 7.03 32.14 7.25Q31.75 7.46 31.35 7.85L31.35 7.85L31.35 9.91Q31.35 10.36 31.35 10.96Q31.35 11.55 31.36 12.07L31.36 12.07L32.16 12.24L32.16 12.85L28.57 12.85L28.57 12.24L29.43 12.07Q29.44 11.54 29.44 10.95Q29.44 10.36 29.44 9.91L29.44 9.91L29.44 9.11Q29.44 8.82 29.44 8.60Q29.44 8.39 29.43 8.20Q29.43 8.01 29.42 7.83Q29.41 7.66 29.40 7.45L29.40 7.45L28.46 7.32L28.46 6.79L31.00 5.88L31.21 6.02L31.30 7.13Q31.60 6.79 31.86 6.56Q32.12 6.33 32.38 6.17Q32.65 6.02 32.93 5.95Q33.22 5.88 33.59 5.88L33.59 5.88Q34.59 5.88 35.13 6.48Q35.66 7.07 35.66 8.34L35.66 8.34L35.66 9.91Q35.66 10.37 35.66 10.97Q35.66 11.56 35.67 12.07L35.67 12.07ZM43.01 10.92L43.48 11.19Q43.23 12.10 42.46 12.58Q41.69 13.06 40.64 13.06L40.64 13.06Q39.87 13.06 39.25 12.82Q38.63 12.59 38.19 12.13Q37.74 11.68 37.51 11.01Q37.27 10.35 37.27 9.49L37.27 9.49Q37.27 8.65 37.55 7.98Q37.84 7.31 38.33 6.84Q38.82 6.37 39.47 6.13Q40.12 5.88 40.87 5.88L40.87 5.88Q41.43 5.88 41.91 6.03Q42.39 6.19 42.74 6.45Q43.09 6.71 43.30 7.07Q43.50 7.43 43.50 7.85L43.50 7.85Q43.34 8.53 42.67 8.53L42.67 8.53Q42.28 8.53 42 8.27Q41.72 8.01 41.69 7.38L41.69 7.38L41.65 6.64Q41.54 6.61 41.43 6.59Q41.33 6.58 41.22 6.58L41.22 6.58Q40.82 6.58 40.47 6.75Q40.12 6.93 39.87 7.27Q39.61 7.62 39.45 8.12Q39.30 8.62 39.30 9.28L39.30 9.28Q39.30 10.65 39.87 11.31Q40.45 11.97 41.33 11.97L41.33 11.97Q41.89 11.97 42.29 11.71Q42.69 11.45 43.01 10.92L43.01 10.92ZM46.45 8.86L48.13 8.86Q48.64 8.86 48.83 8.65Q49.01 8.44 49.01 7.99L49.01 7.99Q49.01 7.32 48.73 6.95Q48.45 6.58 48.01 6.58L48.01 6.58Q47.77 6.58 47.52 6.69Q47.26 6.80 47.05 7.07Q46.83 7.34 46.67 7.78Q46.51 8.22 46.45 8.86L46.45 8.86ZM50.74 9.56L46.44 9.56Q46.48 10.81 47.05 11.39Q47.61 11.97 48.47 11.97L48.47 11.97Q49.08 11.97 49.48 11.70Q49.88 11.42 50.20 10.92L50.20 10.92L50.68 11.19Q50.40 12.11 49.63 12.59Q48.86 13.06 47.80 13.06L47.80 13.06Q47.04 13.06 46.41 12.82Q45.78 12.59 45.34 12.13Q44.90 11.68 44.65 11.01Q44.41 10.35 44.41 9.49L44.41 9.49Q44.41 8.69 44.67 8.04Q44.94 7.38 45.41 6.90Q45.88 6.41 46.52 6.15Q47.17 5.88 47.91 5.88L47.91 5.88Q48.58 5.88 49.12 6.10Q49.66 6.31 50.04 6.71Q50.41 7.10 50.62 7.64Q50.82 8.19 50.82 8.83L50.82 8.83Q50.82 9.23 50.74 9.56L50.74 9.56ZM54.07 4.44L53.87 5.42Q53.76 5.96 53.53 6.17Q53.30 6.37 53.02 6.37L53.02 6.37Q52.49 6.37 52.16 5.87L52.16 5.87Q52.19 5.31 52.42 4.90Q52.65 4.49 53.02 4.23Q53.40 3.96 53.88 3.84Q54.36 3.71 54.89 3.71L54.89 3.71Q55.61 3.71 56.16 3.88Q56.71 4.05 57.09 4.35Q57.47 4.65 57.66 5.06Q57.85 5.47 57.85 5.95L57.85 5.95Q57.85 6.79 57.33 7.33Q56.81 7.87 55.89 8.12L55.89 8.12Q57.02 8.32 57.60 8.89Q58.18 9.46 58.18 10.49L58.18 10.49Q58.18 11.03 57.97 11.51Q57.75 11.98 57.32 12.33Q56.90 12.67 56.24 12.87Q55.59 13.06 54.74 13.06L54.74 13.06Q54.10 13.06 53.56 12.91Q53.02 12.75 52.63 12.47Q52.25 12.19 52.03 11.78Q51.81 11.37 51.81 10.84L51.81 10.84Q51.94 10.47 52.16 10.37Q52.39 10.26 52.63 10.26L52.63 10.26Q52.98 10.26 53.22 10.48Q53.47 10.70 53.58 11.35L53.58 11.35L53.72 12.31Q53.94 12.36 54.24 12.36L54.24 12.36Q55.19 12.36 55.68 11.87Q56.17 11.37 56.17 10.37L56.17 10.37Q56.17 9.56 55.75 9.06Q55.33 8.55 54.38 8.55L54.38 8.55L53.70 8.55L53.70 7.78L54.25 7.78Q55.16 7.78 55.55 7.36Q55.94 6.93 55.94 6.08L55.94 6.08Q55.94 5.28 55.56 4.84Q55.17 4.41 54.49 4.41L54.49 4.41Q54.39 4.41 54.28 4.42Q54.18 4.42 54.07 4.44L54.07 4.44ZM62.57 12.36L62.57 12.36Q63.10 12.36 63.43 11.83Q63.77 11.30 63.77 10.23L63.77 10.23Q63.77 9.14 63.41 8.67Q63.04 8.20 62.38 8.20L62.38 8.20Q62.05 8.20 61.73 8.34Q61.40 8.47 61.07 8.72L61.07 8.72Q61.08 10.61 61.50 11.49Q61.91 12.36 62.57 12.36ZM64.75 3.61L64.83 4.24Q63.92 4.41 63.27 4.80Q62.62 5.19 62.17 5.70Q61.73 6.20 61.47 6.78Q61.22 7.35 61.12 7.91L61.12 7.91Q61.91 7.29 62.96 7.29L62.96 7.29Q64.30 7.29 64.98 8.02Q65.66 8.75 65.66 10.02L65.66 10.02Q65.66 10.78 65.42 11.35Q65.17 11.91 64.74 12.29Q64.30 12.67 63.71 12.87Q63.13 13.06 62.44 13.06L62.44 13.06Q61.67 13.06 61.05 12.79Q60.44 12.52 60.00 12.01Q59.57 11.51 59.34 10.78Q59.11 10.05 59.11 9.14L59.11 9.14Q59.11 8.20 59.47 7.25Q59.82 6.30 60.54 5.52Q61.25 4.75 62.31 4.22Q63.36 3.70 64.75 3.61L64.75 3.61ZM68.53 8.39L68.53 8.39Q68.53 9.67 68.62 10.46Q68.71 11.24 68.88 11.66Q69.05 12.08 69.27 12.22Q69.50 12.36 69.78 12.36L69.78 12.36Q70.04 12.36 70.27 12.22Q70.50 12.08 70.67 11.66Q70.84 11.23 70.93 10.45Q71.02 9.67 71.02 8.39L71.02 8.39Q71.02 7.11 70.93 6.33Q70.84 5.54 70.67 5.12Q70.50 4.69 70.27 4.55Q70.04 4.41 69.78 4.41L69.78 4.41Q69.50 4.41 69.27 4.55Q69.05 4.69 68.88 5.11Q68.71 5.53 68.62 6.31Q68.53 7.10 68.53 8.39ZM69.78 3.71L69.78 3.71Q70.38 3.71 70.95 3.98Q71.53 4.24 71.97 4.81Q72.42 5.38 72.69 6.26Q72.95 7.14 72.95 8.39L72.95 8.39Q72.95 9.63 72.69 10.51Q72.42 11.40 71.97 11.96Q71.53 12.53 70.95 12.80Q70.38 13.06 69.78 13.06L69.78 13.06Q69.16 13.06 68.59 12.80Q68.03 12.53 67.58 11.96Q67.13 11.40 66.86 10.51Q66.60 9.63 66.60 8.39L66.60 8.39Q66.60 7.14 66.86 6.26Q67.13 5.38 67.58 4.81Q68.03 4.24 68.59 3.98Q69.16 3.71 69.78 3.71Z"></path></g><!----><g data-v-423bf9ae="" id="a7803f45-58a3-4650-ba11-0399a37281ab" transform="matrix(2.3201860164326056,0,0,2.3201860164326056,95.99069917836972,-70.4042949466417)" stroke="none" fill="white"><path d="M93.5 48.889V47.5a1 1 0 10-2 0v1h-1.974v-8.789a4.19 4.19 0 00-4.185-4.185H84a4.19 4.19 0 00-4.185 4.185V48.5h-1.474V35.237a4.189 4.189 0 00-4.184-4.185h-3.579a4.19 4.19 0 00-4.185 4.185V43.5H33.605v-8.711a4.189 4.189 0 00-4.185-4.184h-3.579a4.189 4.189 0 00-4.185 4.184V48.5h-1.474v-8.789a4.189 4.189 0 00-4.184-4.185h-1.342a4.189 4.189 0 00-4.184 4.185V48.5H8.5v-1a1 1 0 00-2 0v1.389c-.305.275-.5.669-.5 1.111s.195.836.5 1.111V52.5a1 1 0 102 0v-1h1.974v8.789a4.189 4.189 0 004.184 4.185H16a4.189 4.189 0 004.184-4.185V51.5h1.474v13.263a4.19 4.19 0 004.185 4.185h3.579a4.19 4.19 0 004.185-4.185V56.5h32.789v8.71a4.19 4.19 0 004.185 4.185h3.579a4.189 4.189 0 004.184-4.185V51.5h1.474v8.789a4.19 4.19 0 004.185 4.185h1.342a4.19 4.19 0 004.185-4.185V51.5h1.97v1a1 1 0 102 0v-1.39c.305-.274.5-.668.5-1.11s-.195-.836-.5-1.111zM62.5 51h-25a1 1 0 010-2h25a1 1 0 110 2z"></path></g><!----></svg>