<?xml version="1.0" encoding="UTF-8"?>
<svg xmlns="http://www.w3.org/2000/svg" xmlns:xlink="http://www.w3.org/1999/xlink" width="150px" height="150px" viewBox="0 0 225 225" version="1.1">
<defs>
<linearGradient id="linear0" gradientUnits="userSpaceOnUse" x1="0" y1="0" x2="1" y2="0" gradientTransform="matrix(203.919252,95.089109,-95.089109,203.919252,0,0)">
<stop offset="0" style="stop-color:rgb(28.627451%,14.117647%,49.411765%);stop-opacity:1;"/>
<stop offset="1" style="stop-color:rgb(66.666667%,28.627451%,78.039216%);stop-opacity:1;"/>
</linearGradient>
</defs>
<g id="surface1">
<rect x="0" y="0" width="225" height="225" style="fill:url(#linear0);stroke:none;"/>
<path style=" stroke:none;fill-rule:nonzero;fill:rgb(100%,100%,100%);fill-opacity:1;" d="M 23.6875 158.128906 L 24.816406 158.128906 C 26.125 158.128906 27.210938 158.019531 28.070312 157.804688 C 28.914062 157.574219 29.578125 157.242188 30.0625 156.8125 C 30.527344 156.363281 30.859375 155.832031 31.058594 155.222656 C 31.238281 154.597656 31.328125 153.898438 31.328125 153.125 C 31.328125 151.386719 30.867188 150.140625 29.953125 149.386719 C 29.023438 148.617188 27.410156 148.230469 25.113281 148.230469 L 23.605469 148.230469 C 23.605469 149.988281 23.605469 151.683594 23.605469 153.316406 C 23.605469 154.945312 23.632812 156.550781 23.6875 158.128906 Z M 25.542969 137.605469 L 23.6875 137.605469 C 23.632812 139.042969 23.605469 140.476562 23.605469 141.910156 C 23.605469 143.34375 23.605469 144.789062 23.605469 146.242188 L 25.003906 146.242188 C 26.816406 146.242188 28.132812 145.875 28.960938 145.136719 C 29.785156 144.386719 30.195312 143.292969 30.195312 141.855469 C 30.195312 140.441406 29.828125 139.375 29.09375 138.65625 C 28.359375 137.957031 27.175781 137.605469 25.542969 137.605469 Z M 15 135.535156 L 26.808594 135.535156 C 29.785156 135.535156 31.960938 136.101562 33.34375 137.230469 C 34.722656 138.359375 35.414062 139.855469 35.414062 141.722656 C 35.414062 142.3125 35.332031 142.898438 35.171875 143.46875 C 35.027344 144.027344 34.777344 144.546875 34.417969 145.03125 C 34.042969 145.515625 33.566406 145.925781 32.992188 146.269531 C 32.421875 146.625 31.71875 146.914062 30.894531 147.128906 C 31.988281 147.34375 32.914062 147.640625 33.667969 148.015625 C 34.417969 148.410156 35.027344 148.867188 35.496094 149.386719 C 35.960938 149.925781 36.292969 150.515625 36.492188 151.164062 C 36.6875 151.828125 36.785156 152.507812 36.785156 153.207031 C 36.785156 154.050781 36.632812 154.890625 36.328125 155.734375 C 36.007812 156.558594 35.414062 157.304688 34.554688 157.96875 C 33.691406 158.632812 32.492188 159.167969 30.949219 159.582031 C 29.425781 159.992188 27.445312 160.199219 25.003906 160.199219 L 15 160.199219 L 15 158.316406 L 18.039062 157.996094 C 18.09375 156.433594 18.121094 154.867188 18.121094 153.289062 C 18.121094 151.726562 18.121094 150.140625 18.121094 148.527344 L 18.121094 147.207031 C 18.121094 145.632812 18.121094 144.0625 18.121094 142.503906 C 18.121094 140.925781 18.09375 139.347656 18.039062 137.769531 L 15 137.417969 Z M 49.667969 156.863281 L 49.667969 150.492188 C 49.203125 150.617188 48.765625 150.75 48.351562 150.894531 C 47.921875 151.019531 47.5625 151.144531 47.277344 151.269531 C 46.164062 151.699219 45.394531 152.246094 44.960938 152.910156 C 44.53125 153.554688 44.316406 154.28125 44.316406 155.089844 C 44.316406 155.589844 44.390625 155.996094 44.53125 156.300781 C 44.675781 156.585938 44.847656 156.839844 45.042969 157.054688 C 45.5625 157.574219 46.261719 157.832031 47.140625 157.832031 C 47.554688 157.832031 47.949219 157.761719 48.324219 157.617188 C 48.703125 157.492188 49.148438 157.242188 49.667969 156.863281 Z M 57.066406 157.105469 L 58.035156 157.832031 C 57.53125 158.855469 56.957031 159.574219 56.3125 159.984375 C 55.683594 160.378906 54.886719 160.578125 53.917969 160.578125 C 52.898438 160.578125 52.046875 160.378906 51.363281 159.984375 C 50.683594 159.574219 50.207031 159.042969 49.9375 158.398438 C 49.078125 159.167969 48.253906 159.761719 47.464844 160.171875 C 46.675781 160.566406 45.6875 160.765625 44.503906 160.765625 C 43 160.765625 41.78125 160.378906 40.847656 159.609375 C 39.898438 158.855469 39.421875 157.734375 39.421875 156.246094 C 39.421875 155.671875 39.519531 155.109375 39.71875 154.550781 C 39.898438 153.976562 40.246094 153.421875 40.765625 152.882812 C 41.285156 152.347656 41.996094 151.828125 42.890625 151.324219 C 43.804688 150.820312 44.972656 150.328125 46.386719 149.84375 C 46.820312 149.703125 47.320312 149.550781 47.894531 149.386719 C 48.484375 149.226562 49.078125 149.054688 49.667969 148.875 L 49.667969 147.746094 C 49.667969 146.167969 49.4375 145.039062 48.96875 144.359375 C 48.484375 143.675781 47.644531 143.335938 46.441406 143.335938 C 46.246094 143.335938 46.046875 143.34375 45.851562 143.363281 C 45.671875 143.363281 45.472656 143.378906 45.257812 143.417969 L 44.960938 145.59375 C 44.835938 146.582031 44.542969 147.308594 44.074219 147.773438 C 43.589844 148.257812 43.027344 148.5 42.378906 148.5 C 41.789062 148.5 41.285156 148.320312 40.875 147.960938 C 40.460938 147.621094 40.191406 147.15625 40.066406 146.5625 C 40.246094 145.09375 41.035156 143.875 42.433594 142.90625 C 43.851562 141.9375 45.761719 141.453125 48.164062 141.453125 C 49.347656 141.453125 50.359375 141.585938 51.203125 141.855469 C 52.046875 142.109375 52.726562 142.527344 53.246094 143.121094 C 53.785156 143.710938 54.179688 144.492188 54.429688 145.460938 C 54.679688 146.429688 54.808594 147.613281 54.808594 149.011719 L 54.808594 156.785156 C 54.808594 157.179688 54.878906 157.5 55.023438 157.753906 C 55.164062 158.003906 55.40625 158.128906 55.75 158.128906 C 56 158.128906 56.195312 158.058594 56.339844 157.914062 C 56.484375 157.753906 56.664062 157.5625 56.878906 157.347656 Z M 66.535156 158.101562 L 68.660156 158.558594 L 68.660156 160.199219 L 59.082031 160.199219 L 59.082031 158.558594 L 61.34375 158.101562 C 61.378906 157.117188 61.398438 156.136719 61.398438 155.171875 C 61.414062 154.203125 61.421875 153.242188 61.421875 152.292969 L 61.421875 136.664062 L 58.597656 136.289062 L 58.597656 134.78125 L 66.101562 133.089844 L 66.613281 133.382812 L 66.480469 138.738281 L 66.480469 152.292969 C 66.480469 153.242188 66.480469 154.210938 66.480469 155.195312 C 66.496094 156.183594 66.515625 157.152344 66.535156 158.101562 Z M 81.03125 156.863281 L 81.03125 150.492188 C 80.566406 150.617188 80.125 150.75 79.714844 150.894531 C 79.300781 151.019531 78.941406 151.144531 78.636719 151.269531 C 77.527344 151.699219 76.753906 152.246094 76.324219 152.910156 C 75.910156 153.554688 75.707031 154.28125 75.707031 155.089844 C 75.707031 155.589844 75.769531 155.996094 75.894531 156.300781 C 76.039062 156.585938 76.207031 156.839844 76.40625 157.054688 C 76.941406 157.574219 77.652344 157.832031 78.53125 157.832031 C 78.925781 157.832031 79.308594 157.761719 79.6875 157.617188 C 80.0625 157.492188 80.511719 157.242188 81.03125 156.863281 Z M 88.425781 157.105469 L 89.394531 157.832031 C 88.894531 158.855469 88.320312 159.574219 87.675781 159.984375 C 87.046875 160.378906 86.257812 160.578125 85.308594 160.578125 C 84.269531 160.578125 83.40625 160.378906 82.726562 159.984375 C 82.0625 159.574219 81.585938 159.042969 81.300781 158.398438 C 80.457031 159.167969 79.632812 159.761719 78.824219 160.171875 C 78.035156 160.566406 77.058594 160.765625 75.894531 160.765625 C 74.386719 160.765625 73.160156 160.378906 72.207031 159.609375 C 71.277344 158.855469 70.808594 157.734375 70.808594 156.246094 C 70.808594 155.671875 70.898438 155.109375 71.078125 154.550781 C 71.277344 153.976562 71.625 153.421875 72.128906 152.882812 C 72.648438 152.347656 73.355469 151.828125 74.253906 151.324219 C 75.167969 150.820312 76.34375 150.328125 77.777344 149.84375 C 78.1875 149.703125 78.691406 149.550781 79.28125 149.386719 C 79.855469 149.226562 80.4375 149.054688 81.03125 148.875 L 81.03125 147.746094 C 81.03125 146.167969 80.796875 145.039062 80.332031 144.359375 C 79.847656 143.675781 79.003906 143.335938 77.804688 143.335938 C 77.605469 143.335938 77.410156 143.34375 77.210938 143.363281 C 77.03125 143.363281 76.84375 143.378906 76.648438 143.417969 L 76.324219 145.59375 C 76.199219 146.582031 75.902344 147.308594 75.4375 147.773438 C 74.953125 148.257812 74.386719 148.5 73.742188 148.5 C 73.167969 148.5 72.667969 148.320312 72.234375 147.960938 C 71.824219 147.621094 71.554688 147.15625 71.429688 146.5625 C 71.609375 145.09375 72.40625 143.875 73.824219 142.90625 C 75.222656 141.9375 77.121094 141.453125 79.523438 141.453125 C 80.707031 141.453125 81.722656 141.585938 82.5625 141.855469 C 83.40625 142.109375 84.089844 142.527344 84.609375 143.121094 C 85.144531 143.710938 85.539062 144.492188 85.792969 145.460938 C 86.042969 146.429688 86.167969 147.613281 86.167969 149.011719 L 86.167969 156.785156 C 86.167969 157.179688 86.238281 157.5 86.382812 157.753906 C 86.542969 158.003906 86.785156 158.128906 87.109375 158.128906 C 87.359375 158.128906 87.558594 158.058594 87.703125 157.914062 C 87.863281 157.753906 88.042969 157.5625 88.238281 157.347656 Z M 109.730469 158.101562 L 111.882812 158.558594 L 111.882812 160.199219 L 102.253906 160.199219 L 102.253906 158.558594 L 104.539062 158.101562 C 104.554688 157.167969 104.566406 156.175781 104.566406 155.117188 C 104.566406 154.058594 104.566406 153.117188 104.566406 152.292969 L 104.566406 148.6875 C 104.566406 147.253906 104.421875 146.203125 104.136719 145.542969 C 103.832031 144.878906 103.238281 144.546875 102.359375 144.546875 C 101.625 144.546875 100.917969 144.742188 100.234375 145.136719 C 99.535156 145.515625 98.828125 146.050781 98.109375 146.75 L 98.109375 152.292969 C 98.109375 153.097656 98.109375 154.039062 98.109375 155.117188 C 98.109375 156.175781 98.121094 157.167969 98.136719 158.101562 L 100.289062 158.558594 L 100.289062 160.199219 L 90.632812 160.199219 L 90.632812 158.558594 L 92.945312 158.101562 C 92.964844 157.152344 92.972656 156.148438 92.972656 155.089844 C 92.972656 154.03125 92.972656 153.097656 92.972656 152.292969 L 92.972656 150.140625 C 92.972656 149.621094 92.972656 149.164062 92.972656 148.769531 C 92.972656 148.390625 92.964844 148.035156 92.945312 147.691406 C 92.945312 147.351562 92.9375 147.019531 92.917969 146.699219 C 92.902344 146.394531 92.882812 146.050781 92.867188 145.675781 L 90.335938 145.328125 L 90.335938 143.902344 L 97.167969 141.453125 L 97.734375 141.828125 L 97.976562 144.816406 C 98.515625 144.207031 99.015625 143.695312 99.480469 143.28125 C 99.949219 142.871094 100.414062 142.519531 100.878906 142.234375 C 101.363281 141.964844 101.859375 141.765625 102.359375 141.640625 C 102.878906 141.515625 103.472656 141.453125 104.136719 141.453125 C 105.929688 141.453125 107.308594 141.992188 108.277344 143.066406 C 109.226562 144.125 109.703125 145.792969 109.703125 148.070312 L 109.703125 152.292969 C 109.703125 153.117188 109.703125 154.066406 109.703125 155.144531 C 109.703125 156.203125 109.710938 157.1875 109.730469 158.101562 Z M 129.472656 155.007812 L 130.734375 155.734375 C 130.289062 157.367188 129.375 158.613281 127.992188 159.472656 C 126.613281 160.335938 124.980469 160.765625 123.097656 160.765625 C 121.714844 160.765625 120.46875 160.550781 119.359375 160.121094 C 118.246094 159.707031 117.296875 159.089844 116.507812 158.261719 C 115.699219 157.457031 115.089844 156.453125 114.679688 155.25 C 114.25 154.066406 114.03125 152.703125 114.03125 151.164062 C 114.03125 149.65625 114.285156 148.304688 114.785156 147.101562 C 115.304688 145.898438 116.003906 144.878906 116.882812 144.035156 C 117.761719 143.191406 118.785156 142.554688 119.949219 142.125 C 121.117188 141.675781 122.371094 141.453125 123.714844 141.453125 C 124.71875 141.453125 125.652344 141.585938 126.511719 141.855469 C 127.375 142.144531 128.117188 142.519531 128.746094 142.984375 C 129.375 143.453125 129.875 144.007812 130.25 144.652344 C 130.609375 145.300781 130.789062 146 130.789062 146.75 C 130.503906 147.972656 129.757812 148.582031 128.558594 148.582031 C 127.859375 148.582031 127.257812 148.347656 126.753906 147.882812 C 126.253906 147.414062 125.976562 146.617188 125.921875 145.488281 L 125.8125 143.496094 C 125.617188 143.445312 125.417969 143.398438 125.222656 143.363281 C 125.042969 143.34375 124.855469 143.335938 124.65625 143.335938 C 123.941406 143.335938 123.269531 143.488281 122.640625 143.792969 C 122.011719 144.117188 121.472656 144.582031 121.027344 145.191406 C 120.558594 145.820312 120.183594 146.582031 119.898438 147.476562 C 119.628906 148.375 119.492188 149.414062 119.492188 150.597656 C 119.492188 153.054688 120.003906 154.875 121.027344 156.058594 C 122.066406 157.242188 123.375 157.832031 124.953125 157.832031 C 125.957031 157.832031 126.816406 157.601562 127.535156 157.132812 C 128.253906 156.667969 128.898438 155.960938 129.472656 155.007812 Z M 138.722656 149.46875 L 143.242188 149.46875 C 144.15625 149.46875 144.785156 149.28125 145.125 148.902344 C 145.449219 148.527344 145.609375 147.933594 145.609375 147.128906 C 145.609375 145.925781 145.359375 144.996094 144.855469 144.332031 C 144.355469 143.667969 143.707031 143.335938 142.921875 143.335938 C 142.488281 143.335938 142.050781 143.433594 141.601562 143.632812 C 141.136719 143.828125 140.714844 144.167969 140.339844 144.652344 C 139.945312 145.136719 139.601562 145.773438 139.316406 146.5625 C 139.027344 147.351562 138.832031 148.320312 138.722656 149.46875 Z M 150.261719 151.351562 L 138.695312 151.351562 C 138.769531 153.59375 139.316406 155.234375 140.339844 156.273438 C 141.34375 157.3125 142.613281 157.832031 144.15625 157.832031 C 145.25 157.832031 146.15625 157.589844 146.875 157.105469 C 147.589844 156.605469 148.238281 155.90625 148.808594 155.007812 L 150.101562 155.734375 C 149.597656 157.386719 148.65625 158.640625 147.277344 159.5 C 145.898438 160.34375 144.257812 160.765625 142.355469 160.765625 C 140.992188 160.765625 139.746094 160.550781 138.617188 160.121094 C 137.488281 159.707031 136.527344 159.089844 135.738281 158.261719 C 134.949219 157.457031 134.332031 156.453125 133.882812 155.25 C 133.453125 154.066406 133.238281 152.703125 133.238281 151.164062 C 133.238281 149.726562 133.46875 148.429688 133.9375 147.261719 C 134.421875 146.078125 135.085938 145.058594 135.925781 144.195312 C 136.769531 143.316406 137.765625 142.644531 138.914062 142.179688 C 140.078125 141.695312 141.324219 141.453125 142.652344 141.453125 C 143.851562 141.453125 144.9375 141.648438 145.90625 142.042969 C 146.875 142.421875 147.699219 142.96875 148.378906 143.683594 C 149.042969 144.386719 149.5625 145.21875 149.941406 146.1875 C 150.296875 147.171875 150.476562 148.238281 150.476562 149.386719 C 150.476562 150.105469 150.40625 150.757812 150.261719 151.351562 Z M 159.21875 137.578125 L 158.679688 140.214844 C 158.484375 141.183594 158.179688 141.855469 157.765625 142.234375 C 157.355469 142.589844 156.898438 142.769531 156.394531 142.769531 C 155.445312 142.769531 154.671875 142.324219 154.082031 141.425781 C 154.136719 140.421875 154.367188 139.550781 154.78125 138.816406 C 155.195312 138.082031 155.730469 137.480469 156.394531 137.015625 C 157.078125 136.53125 157.847656 136.179688 158.707031 135.964844 C 159.570312 135.734375 160.472656 135.617188 161.425781 135.617188 C 162.714844 135.617188 163.855469 135.769531 164.839844 136.074219 C 165.828125 136.378906 166.660156 136.800781 167.34375 137.339844 C 168.023438 137.875 168.535156 138.511719 168.875 139.246094 C 169.214844 139.984375 169.386719 140.78125 169.386719 141.640625 C 169.386719 143.148438 168.921875 144.386719 167.988281 145.351562 C 167.054688 146.320312 165.765625 147.03125 164.113281 147.476562 C 166.140625 147.835938 167.671875 148.527344 168.714844 149.550781 C 169.753906 150.570312 170.273438 152.003906 170.273438 153.851562 C 170.273438 154.820312 170.085938 155.734375 169.707031 156.597656 C 169.316406 157.4375 168.730469 158.171875 167.960938 158.800781 C 167.207031 159.410156 166.238281 159.894531 165.054688 160.253906 C 163.890625 160.59375 162.546875 160.765625 161.019531 160.765625 C 159.875 160.765625 158.816406 160.628906 157.847656 160.363281 C 156.878906 160.074219 156.046875 159.679688 155.347656 159.179688 C 154.664062 158.675781 154.125 158.058594 153.730469 157.320312 C 153.339844 156.585938 153.140625 155.742188 153.140625 154.792969 C 153.375 154.128906 153.6875 153.707031 154.082031 153.53125 C 154.496094 153.332031 154.914062 153.234375 155.347656 153.234375 C 155.972656 153.234375 156.503906 153.429688 156.933594 153.824219 C 157.382812 154.21875 157.703125 155 157.902344 156.164062 L 158.277344 158.746094 C 158.671875 158.835938 159.136719 158.882812 159.675781 158.882812 C 161.378906 158.882812 162.671875 158.441406 163.550781 157.5625 C 164.429688 156.667969 164.867188 155.324219 164.867188 153.53125 C 164.867188 152.078125 164.492188 150.902344 163.738281 150.007812 C 162.984375 149.089844 161.757812 148.632812 160.054688 148.632812 L 158.222656 148.632812 L 158.222656 146.5625 L 159.703125 146.5625 C 161.335938 146.5625 162.5 146.1875 163.199219 145.433594 C 163.898438 144.664062 164.25 143.515625 164.25 141.992188 C 164.25 140.554688 163.910156 139.445312 163.226562 138.65625 C 162.527344 137.886719 161.566406 137.5 160.347656 137.5 C 160.167969 137.5 159.980469 137.507812 159.785156 137.527344 C 159.605469 137.527344 159.417969 137.542969 159.21875 137.578125 Z M 182.082031 158.882812 C 183.03125 158.882812 183.804688 158.40625 184.394531 157.457031 C 185.003906 156.507812 185.308594 155.070312 185.308594 153.152344 C 185.308594 151.199219 184.984375 149.800781 184.339844 148.957031 C 183.675781 148.113281 182.753906 147.691406 181.570312 147.691406 C 180.980469 147.691406 180.394531 147.820312 179.820312 148.070312 C 179.230469 148.304688 178.636719 148.644531 178.046875 149.089844 C 178.066406 152.480469 178.449219 154.964844 179.203125 156.542969 C 179.9375 158.101562 180.898438 158.882812 182.082031 158.882812 Z M 187.945312 135.347656 L 188.160156 137.042969 C 186.527344 137.347656 185.128906 137.847656 183.964844 138.546875 C 182.796875 139.246094 181.8125 140.054688 181.003906 140.96875 C 180.214844 141.867188 179.589844 142.832031 179.121094 143.875 C 178.675781 144.894531 178.359375 145.910156 178.179688 146.914062 C 179.597656 145.800781 181.246094 145.246094 183.128906 145.246094 C 185.53125 145.246094 187.34375 145.898438 188.5625 147.207031 C 189.78125 148.519531 190.390625 150.3125 190.390625 152.589844 C 190.390625 153.949219 190.175781 155.144531 189.746094 156.164062 C 189.296875 157.167969 188.6875 158.011719 187.917969 158.695312 C 187.128906 159.375 186.207031 159.894531 185.148438 160.253906 C 184.109375 160.59375 182.96875 160.765625 181.730469 160.765625 C 180.351562 160.765625 179.105469 160.523438 177.992188 160.039062 C 176.898438 159.554688 175.957031 158.855469 175.167969 157.941406 C 174.398438 157.042969 173.804688 155.941406 173.394531 154.632812 C 172.980469 153.324219 172.773438 151.851562 172.773438 150.222656 C 172.773438 148.535156 173.097656 146.839844 173.742188 145.136719 C 174.371094 143.433594 175.332031 141.882812 176.621094 140.484375 C 177.894531 139.105469 179.480469 137.9375 181.382812 136.988281 C 183.265625 136.054688 185.453125 135.507812 187.945312 135.347656 Z M 198.113281 148.203125 C 198.113281 150.5 198.191406 152.355469 198.355469 153.773438 C 198.515625 155.171875 198.75 156.246094 199.054688 157 C 199.359375 157.753906 199.707031 158.253906 200.101562 158.503906 C 200.515625 158.757812 200.972656 158.882812 201.472656 158.882812 C 201.941406 158.882812 202.378906 158.757812 202.792969 158.503906 C 203.203125 158.253906 203.5625 157.753906 203.867188 157 C 204.171875 156.226562 204.40625 155.144531 204.566406 153.746094 C 204.726562 152.347656 204.808594 150.5 204.808594 148.203125 C 204.808594 145.910156 204.726562 144.0625 204.566406 142.664062 C 204.40625 141.246094 204.171875 140.160156 203.867188 139.410156 C 203.5625 138.636719 203.203125 138.125 202.792969 137.875 C 202.378906 137.625 201.941406 137.5 201.472656 137.5 C 200.972656 137.5 200.515625 137.625 200.101562 137.875 C 199.707031 138.125 199.359375 138.628906 199.054688 139.382812 C 198.75 140.136719 198.515625 141.210938 198.355469 142.609375 C 198.191406 144.027344 198.113281 145.890625 198.113281 148.203125 Z M 201.472656 135.617188 C 202.550781 135.617188 203.597656 135.859375 204.621094 136.34375 C 205.660156 136.808594 206.574219 137.554688 207.363281 138.574219 C 208.171875 139.597656 208.816406 140.898438 209.300781 142.476562 C 209.765625 144.054688 210 145.960938 210 148.203125 C 210 150.425781 209.765625 152.328125 209.300781 153.90625 C 208.816406 155.503906 208.171875 156.800781 207.363281 157.804688 C 206.574219 158.828125 205.660156 159.582031 204.621094 160.066406 C 203.597656 160.53125 202.550781 160.765625 201.472656 160.765625 C 200.363281 160.765625 199.296875 160.53125 198.273438 160.066406 C 197.269531 159.582031 196.363281 158.828125 195.554688 157.804688 C 194.75 156.800781 194.105469 155.503906 193.621094 153.90625 C 193.152344 152.328125 192.921875 150.425781 192.921875 148.203125 C 192.921875 145.960938 193.152344 144.054688 193.621094 142.476562 C 194.105469 140.898438 194.75 139.597656 195.554688 138.574219 C 196.363281 137.554688 197.269531 136.808594 198.273438 136.34375 C 199.296875 135.859375 200.363281 135.617188 201.472656 135.617188 Z M 201.472656 135.617188 "/>
<path style=" stroke:none;fill-rule:nonzero;fill:rgb(100%,100%,100%);fill-opacity:1;" d="M 174.574219 90.328125 L 174.574219 88.34375 C 174.574219 87.554688 173.933594 86.917969 173.148438 86.917969 C 172.359375 86.917969 171.71875 87.554688 171.71875 88.34375 L 171.71875 89.769531 L 168.902344 89.769531 L 168.902344 77.230469 C 168.898438 73.933594 166.226562 71.261719 162.929688 71.257812 L 161.019531 71.257812 C 157.722656 71.261719 155.050781 73.933594 155.046875 77.230469 L 155.046875 89.769531 L 152.941406 89.769531 L 152.941406 70.84375 C 152.9375 67.546875 150.269531 64.878906 146.972656 64.871094 L 141.863281 64.871094 C 138.566406 64.878906 135.898438 67.546875 135.894531 70.84375 L 135.894531 82.636719 L 89.105469 82.636719 L 89.105469 70.207031 C 89.101562 66.910156 86.429688 64.238281 83.132812 64.234375 L 78.023438 64.234375 C 74.730469 64.238281 72.058594 66.910156 72.054688 70.207031 L 72.054688 89.769531 L 69.949219 89.769531 L 69.949219 77.230469 C 69.945312 73.933594 67.277344 71.261719 63.980469 71.257812 L 62.0625 71.257812 C 58.769531 71.261719 56.097656 73.933594 56.09375 77.230469 L 56.09375 89.769531 L 53.28125 89.769531 L 53.28125 88.34375 C 53.28125 87.554688 52.640625 86.917969 51.851562 86.917969 C 51.066406 86.917969 50.425781 87.554688 50.425781 88.34375 L 50.425781 90.328125 C 49.992188 90.71875 49.710938 91.28125 49.710938 91.910156 C 49.710938 92.542969 49.992188 93.105469 50.425781 93.496094 L 50.425781 95.480469 C 50.425781 96.265625 51.066406 96.90625 51.851562 96.90625 C 52.640625 96.90625 53.28125 96.265625 53.28125 95.480469 L 53.28125 94.050781 L 56.097656 94.050781 L 56.097656 106.59375 C 56.101562 109.890625 58.769531 112.5625 62.066406 112.566406 L 63.980469 112.566406 C 67.277344 112.5625 69.949219 109.890625 69.953125 106.59375 L 69.953125 94.050781 L 72.054688 94.050781 L 72.054688 112.976562 C 72.058594 116.273438 74.730469 118.945312 78.027344 118.949219 L 83.136719 118.949219 C 86.433594 118.945312 89.101562 116.273438 89.105469 112.976562 L 89.105469 101.1875 L 135.898438 101.1875 L 135.898438 113.617188 C 135.902344 116.914062 138.574219 119.585938 141.867188 119.589844 L 146.976562 119.589844 C 150.273438 119.585938 152.945312 116.914062 152.945312 113.617188 L 152.945312 94.050781 L 155.050781 94.050781 L 155.050781 106.59375 C 155.054688 109.890625 157.726562 112.5625 161.023438 112.566406 L 162.9375 112.566406 C 166.234375 112.5625 168.90625 109.890625 168.910156 106.59375 L 168.910156 94.050781 L 171.71875 94.050781 L 171.71875 95.480469 C 171.71875 96.265625 172.359375 96.90625 173.148438 96.90625 C 173.933594 96.90625 174.574219 96.265625 174.574219 95.480469 L 174.574219 93.496094 C 175.007812 93.105469 175.289062 92.542969 175.289062 91.910156 C 175.289062 91.28125 175.007812 90.71875 174.574219 90.328125 Z M 130.335938 93.339844 L 94.664062 93.339844 C 93.875 93.339844 93.234375 92.699219 93.234375 91.910156 C 93.234375 91.125 93.875 90.484375 94.664062 90.484375 L 130.335938 90.484375 C 131.125 90.484375 131.765625 91.125 131.765625 91.910156 C 131.765625 92.699219 131.125 93.339844 130.335938 93.339844 Z M 130.335938 93.339844 "/>
</g>
</svg>
